<svg height="512pt" viewBox="0 0 512 512" width="512pt" xmlns="http://www.w3.org/2000/svg"><path d="m290 512h-68c-11.027344 0-20-8.972656-20-20v-29.855469c-18.816406-4.917969-36.773438-12.363281-53.5625-22.210937l-21.128906 21.128906c-7.800782 7.796875-20.488282 7.796875-28.285156 0l-48.085938-48.085938c-7.796875-7.796874-7.796875-20.484374 0-28.28125l21.128906-21.132812c-9.847656-16.789062-17.292968-34.746094-22.210937-53.5625h-29.855469c-11.027344 0-20-8.972656-20-20v-68c0-11.027344 8.972656-20 20-20h29.789062c4.902344-18.847656 12.339844-36.835938 22.1875-53.65625l-21.039062-21.039062c-7.796875-7.796876-7.796875-20.484376 0-28.28125l48.085938-48.085938c7.796874-7.796875 20.484374-7.796875 28.285156 0l20.964844 20.96875c16.835937-9.894531 34.847656-17.371094 53.726562-22.304688v-29.601562c0-11.027344 8.972656-20 20-20h68c11.027344 0 20 8.972656 20 20v29.535156c18.90625 4.917969 36.953125 12.386719 53.816406 22.277344l20.878906-20.875c7.796876-7.796875 20.484376-7.796875 28.28125 0l48.085938 48.085938c7.796875 7.796874 7.796875 20.484374 0 28.285156l-20.875 20.875c9.890625 16.863281 17.359375 34.910156 22.277344 53.816406h29.535156c11.027344 0 20 8.972656 20 20v68c0 11.027344-8.972656 20-20 20h-29.601562c-4.933594 18.878906-12.414063 36.890625-22.304688 53.726562l20.964844 20.96875c7.796875 7.796876 7.796875 20.484376 0 28.28125l-48.082032 48.085938c-7.796874 7.796875-20.484374 7.796875-28.285156 0l-21.035156-21.039062c-16.824219 9.847656-34.8125 17.285156-53.65625 22.1875v29.789062c0 11.027344-8.972656 20-20 20zm-143.0625-94.710938c1.859375 0 3.722656.515626 5.378906 1.570313 19.027344 12.148437 39.835938 20.777344 61.84375 25.648437 4.582032 1.015626 7.839844 5.074219 7.839844 9.765626v37.726562h68v-37.671875c0-4.695313 3.265625-8.757813 7.851562-9.765625 22.039063-4.851562 42.878907-13.46875 61.9375-25.609375 3.953126-2.519531 9.128907-1.953125 12.445313 1.363281l26.601563 26.601563 48.082031-48.082031-26.542969-26.542969c-3.320312-3.320313-3.882812-8.503907-1.351562-12.460938 12.191406-19.0625 20.855468-39.921875 25.742187-61.992187 1.011719-4.582032 5.074219-7.839844 9.761719-7.839844h37.472656v-68h-37.417969c-4.695312 0-8.757812-3.265625-9.765625-7.851562-4.863281-22.101563-13.511718-42.992188-25.703125-62.085938-2.523437-3.957031-1.957031-9.132812 1.359375-12.453125l26.445313-26.445313-48.082031-48.082031-26.445313 26.445313c-3.316406 3.316406-8.496094 3.882812-12.453125 1.359375-19.09375-12.191407-39.984375-20.835938-62.085938-25.703125-4.585937-1.007813-7.851562-5.070313-7.851562-9.765625v-37.417969h-68v37.472656c0 4.691406-3.257812 8.75-7.835938 9.765625-22.074218 4.886719-42.933593 13.546875-61.996093 25.738281-3.953125 2.53125-9.140625 1.96875-12.457031-1.351562l-26.546876-26.542969-48.082031 48.082031 26.601563 26.605469c3.316406 3.3125 3.882812 8.488281 1.363281 12.441407-12.140625 19.058593-20.757813 39.898437-25.609375 61.9375-1.007812 4.585937-5.070312 7.851562-9.765625 7.851562h-37.671875v68h37.726562c4.691407 0 8.75 3.261719 9.765626 7.839844 4.871093 22.011718 13.503906 42.816406 25.648437 61.84375 2.523437 3.957031 1.960937 9.136718-1.359375 12.453125l-26.699219 26.699219 48.082031 48.085937 26.699219-26.703125c1.933594-1.929688 4.492188-2.929688 7.074219-2.929688zm0 0"/><path d="m256 401.933594c-37.386719 0-74.773438-14.234375-103.238281-42.695313-56.925781-56.925781-56.925781-149.550781 0-206.476562 22.960937-22.957031 52.074219-37.316407 84.191406-41.519531 31.097656-4.070313 63.203125 2.09375 90.414063 17.351562 4.816406 2.699219 6.53125 8.792969 3.832031 13.609375-2.703125 4.820313-8.796875 6.535156-13.613281 3.832031-48.96875-27.460937-110.933594-18.878906-150.679688 20.871094-49.128906 49.125-49.128906 129.0625 0 178.191406 24.5625 24.558594 56.832031 36.839844 89.09375 36.84375 32.269531.003906 64.53125-12.277344 89.097656-36.84375 38.410156-38.410156 47.921875-96.84375 23.664063-145.402344-2.46875-4.941406-.464844-10.949218 4.476562-13.417968 4.9375-2.46875 10.945313-.460938 13.414063 4.480468 28.109375 56.265626 17.09375 123.976563-27.414063 168.480469-28.464843 28.460938-65.851562 42.695313-103.238281 42.695313zm0 0"/><path d="m354.351562 172.011719c-2.640624 0-5.210937-1.0625-7.082031-2.933594-1.859375-1.859375-2.917969-4.429687-2.917969-7.066406 0-2.632813 1.058594-5.210938 2.917969-7.070313 1.859375-1.863281 4.441407-2.929687 7.082031-2.929687 2.628907 0 5.207032 1.066406 7.070313 2.929687 1.859375 1.859375 2.929687 4.4375 2.929687 7.070313 0 2.636719-1.070312 5.207031-2.929687 7.066406-1.871094 1.871094-4.441406 2.933594-7.070313 2.933594zm0 0"/><path d="m241.886719 329.667969c-2.652344 0-5.195313-1.054688-7.070313-2.929688l-63.238281-63.242187c-3.90625-3.902344-3.90625-10.234375 0-14.140625l35.867187-35.871094c1.875-1.875 4.417969-2.925781 7.070313-2.925781s5.199219 1.050781 7.074219 2.925781l20.296875 20.300781 48.527343-48.523437c3.902344-3.90625 10.234376-3.90625 14.140626 0l35.871093 35.871093c3.902344 3.902344 3.902344 10.234376 0 14.140626l-91.464843 91.464843c-1.878907 1.875-4.421876 2.929688-7.074219 2.929688zm-49.097657-73.242188 49.097657 49.097657 77.324219-77.320313-21.726563-21.726563-48.523437 48.523438c-1.875 1.875-4.421876 2.929688-7.074219 2.929688-2.652344 0-5.195313-1.054688-7.070313-2.929688l-20.300781-20.300781zm0 0"/></svg>