<?xml version="1.0" standalone="no"?><!DOCTYPE svg PUBLIC "-//W3C//DTD SVG 1.1//EN" "http://www.w3.org/Graphics/SVG/1.1/DTD/svg11.dtd"><svg t="1573182938762" class="icon" viewBox="0 0 1024 1024" version="1.1" xmlns="http://www.w3.org/2000/svg" p-id="1805" xmlns:xlink="http://www.w3.org/1999/xlink" width="200" height="200"><defs><style type="text/css"></style></defs><path d="M340 865.142857q0-57.142857-94.285714-57.142857-90.285714 0-90.285715 59.428571 0 57.714286 98.285715 57.714286 86.285714 0 86.285714-60z m-33.714286-431.428571q0-34.857143-17.142857-58.285715t-50.857143-23.428571q-70.857143 0-70.857143 82.857143 0 77.142857 70.857143 77.142857 68 0 68-78.285714z m153.714286-185.142857v115.428571q-20.571429 6.857143-45.142857 12.571429 9.142857 24.571429 9.142857 48 0 72.571429-41.714286 123.714285T269.714286 612.571429q-22.857143 4.571429-34 15.428571t-11.142857 33.142857q0 17.714286 12.857142 29.428572t33.142858 18.285714 44.857142 12.571428 49.142858 14.571429 44.857142 21.428571 33.142858 36.571429T455.428571 850.285714q0 173.714286-207.428571 173.714286-39.428571 0-74.285714-7.142857t-66.285715-23.428572-50-46.857142T38.857143 873.714286q0-94.285714 104-128.571429v-2.285714q-38.285714-23.428571-38.285714-72 0-62.285714 36-78.285714v-2.285715q-41.142857-13.714286-68.285715-62T45.142857 433.714286q0-79.428571 54.285714-132.285715T233.714286 248.571429q54.857143 0 101.714285 26.857142 56 0 124.571429-26.857142z m181.714286 503.428571H514.857143q2.285714-25.714286 2.285714-76.571429V327.428571q0-53.714286-2.285714-73.142857h126.857143q-2.285714 18.857143-2.285715 70.857143v350.285714q0 50.857143 2.285715 76.571429z m343.428571-126.857143v112q-40.571429 22.285714-99.428571 22.285714-35.428571 0-61.142857-11.428571t-40-28.571429-22.571429-44.571428-10.571429-52.571429-2.285714-58.857143V362.857143h1.142857v-2.285714q-4 0-10.857143-0.571429t-10.285714-0.571429q-12 0-33.714286 3.428572V254.285714h54.857143v-43.428571q0-30.857143-3.428571-50.857143h129.714286q-3.428571 23.428571-3.428572 94.285714h97.714286v108.571429q-8.571429 0-24.857143-1.142857t-24.285714-1.142857h-48.571429v208.571428q0 74.857143 49.714286 74.857143 34.857143 0 62.285714-18.857143z m-329.142857-541.142857q0 33.142857-22.285714 58t-54.857143 24.857143q-33.142857 0-56-24.857143T500 84q0-33.714286 22.571429-58.857143T578.857143 0q33.142857 0 55.142857 25.428571T656 84z" p-id="1806"></path></svg>